<svg width="37" height="37" viewBox="0 0 37 37" fill="none" xmlns="http://www.w3.org/2000/svg">
<rect width="37" height="37" rx="12" fill="#00D09E"/>
<path d="M13 24.2631C13 25.6589 13.5794 26.9975 14.6107 27.9845C15.6421 28.9715 17.0409 29.5261 18.4994 29.5261M18.4994 29.5261C19.958 29.5261 21.3568 28.9715 22.3882 27.9845C23.4195 26.9975 23.9989 25.6589 23.9989 24.2631C24.0164 23.4492 23.8243 22.6437 23.4396 21.9177C23.0549 21.1918 22.4893 20.5676 21.7929 20.1002C19.6242 18.8454 16.629 19.22 14.7275 17.5251C14.1871 17.0406 13.7553 16.456 13.4584 15.8068C13.1614 15.1576 13.0054 14.4575 13 13.7488C13 12.3525 13.5792 11.0131 14.6104 10.0252C15.6415 9.03723 17.0403 8.48145 18.4994 8.47987C19.9585 8.48145 21.3573 9.03723 22.3885 10.0252C23.4197 11.0131 23.9989 12.3525 23.9989 13.7488M18.4994 29.5261L18.4994 32M18.4994 6V8.47392" stroke="#093030" stroke-width="2" stroke-linecap="round" stroke-linejoin="round"/>
</svg>
