<svg width="35" height="35" viewBox="0 0 35 35" fill="none" xmlns="http://www.w3.org/2000/svg">
<circle cx="17.5" cy="17.5" r="17.5" fill="#00D09E"/>
<path d="M9.62386 21.1569C9.20969 22.206 9.00925 23.3272 9.03432 24.4547C9.03432 29.1302 25.9572 29.1302 25.9656 24.4547C25.9907 23.3272 25.7903 22.206 25.3761 21.1569C24.962 20.1079 24.3424 19.1521 23.5538 18.3458C22.7652 17.5395 21.8235 16.8988 20.7839 16.4614C19.7443 16.024 18.6278 15.7987 17.5 15.7987C16.3721 15.7987 15.2556 16.024 14.2161 16.4614C13.1765 16.8988 12.2348 17.5395 11.4462 18.3458C10.6576 19.1521 10.038 20.1079 9.62386 21.1569Z" stroke="#2C2C28" stroke-width="1.69355" stroke-linecap="round" stroke-linejoin="round"/>
<path d="M17.4937 13.5718C19.3708 13.5718 20.8925 12.0501 20.8925 10.173C20.8925 8.29587 19.3708 6.77417 17.4937 6.77417C15.6166 6.77417 14.0949 8.29587 14.0949 10.173C14.0949 12.0501 15.6166 13.5718 17.4937 13.5718Z" stroke="#2C2C28" stroke-width="1.69355" stroke-linecap="round" stroke-linejoin="round"/>
</svg>
