<svg width="37" height="37" viewBox="0 0 37 37" fill="none" xmlns="http://www.w3.org/2000/svg">
<rect width="37" height="37" rx="12" fill="#00D09E"/>
<path d="M18.4902 8H18.5068C18.6523 7.99858 18.7965 8.02527 18.9307 8.07812L19.0615 8.13965C19.1884 8.20966 19.2995 8.3036 19.3896 8.41504L19.4727 8.53125L19.4785 8.54102L21.8672 12.3291L21.8711 12.335C22.2526 12.9305 22.8199 13.3799 23.4805 13.6162L23.7695 13.7041L23.7725 13.7051L28.126 14.7969H28.127C28.3172 14.8445 28.4919 14.9394 28.6348 15.0723C28.7777 15.2052 28.8843 15.3724 28.9443 15.5566C29.0043 15.7407 29.0164 15.937 28.9795 16.127C28.9518 16.2694 28.8968 16.4055 28.8184 16.5273L28.7314 16.6445L28.7305 16.6455L25.8545 20.0801C25.3991 20.6235 25.1428 21.3021 25.1211 22.0049L25.126 22.3066V22.3096L25.4277 26.7725C25.438 26.9288 25.4161 27.0857 25.3633 27.2334C25.3103 27.3813 25.2272 27.5175 25.1191 27.6328C25.0112 27.748 24.8799 27.8401 24.7344 27.9033C24.589 27.9664 24.4322 27.9985 24.2734 27.999C24.1615 27.9987 24.0504 27.984 23.9434 27.9531L23.8369 27.917L19.6738 26.251L19.667 26.249L19.3838 26.1523C19.097 26.0698 18.7994 26.0282 18.5 26.0273L18.4971 26.9609L18.5 26.0264L18.4922 26.0273C18.1947 26.0288 17.8992 26.071 17.6143 26.1533L17.333 26.249L17.3262 26.251L13.1631 27.917C13.0239 27.9718 12.8754 27.9988 12.7256 27.999C12.567 27.9984 12.4098 27.9664 12.2646 27.9033C12.1193 27.8401 11.9887 27.7479 11.8809 27.6328C11.7728 27.5175 11.6897 27.3813 11.6367 27.2334C11.5839 27.0857 11.562 26.9288 11.5723 26.7725L11.874 22.3096V22.3066C11.9267 21.4981 11.6652 20.701 11.1445 20.0801H11.1455L8.26953 16.6455L8.26855 16.6445L8.18164 16.5273C8.12943 16.4462 8.08783 16.3589 8.05762 16.2676L8.02051 16.127C7.99282 15.9845 7.9934 15.8383 8.02051 15.6963L8.05664 15.5566C8.10172 15.4183 8.17275 15.2902 8.26562 15.1787L8.36523 15.0723C8.47223 14.9727 8.59738 14.8948 8.7334 14.8418L8.87305 14.7969H8.87402L13.2275 13.7051L13.2285 13.7041C13.9155 13.5307 14.5223 13.1333 14.9531 12.5781L15.127 12.3301L17.5205 8.54199L17.5273 8.53125C17.6026 8.40908 17.7008 8.30268 17.8164 8.21777L17.9375 8.14062C18.1063 8.04728 18.2968 7.99858 18.4902 8Z" stroke="#093030" stroke-width="2"/>
</svg>
