<svg width="57" height="53" viewBox="0 0 57 53" fill="none" xmlns="http://www.w3.org/2000/svg">
<rect width="57" height="53" rx="22" fill="#3299FF"/>
<path d="M38.0068 27.7522V36.6284C38.0068 37.037 37.8445 37.4289 37.5556 37.7179C37.2666 38.0068 36.8747 38.1692 36.4661 38.1692H21.5007C21.092 38.1692 20.7001 38.0068 20.4112 37.7179C20.1222 37.4289 19.9599 37.037 19.9599 36.6284V27.7522M28.9834 22.1217C28.9834 22.1217 34.5969 21.7989 35.9904 20.7113C36.6556 20.1904 37.0878 19.4277 37.1928 18.5894C37.2979 17.7511 37.0673 16.9053 36.5512 16.2364C36.03 15.5683 35.2654 15.1337 34.4248 15.0275C33.5841 14.9214 32.7357 15.1523 32.0648 15.6699C30.6827 16.7575 28.9834 22.1217 28.9834 22.1217ZM28.9834 22.1217C28.9834 22.1217 23.3698 21.7989 21.9764 20.7113C21.3107 20.1905 20.8786 19.4272 20.7746 18.5885C20.6706 17.7498 20.9031 16.904 21.4213 16.2364C21.9415 15.567 22.7061 15.1314 23.5472 15.0252C24.3883 14.919 25.2373 15.1509 25.9076 15.6699C27.2841 16.7575 28.9834 22.1217 28.9834 22.1217ZM28.9834 22.1217V38.1691M19.4274 22.1217H38.545C39.3333 22.1217 39.9724 22.7608 39.9724 23.5492V25.6677C39.9724 26.456 39.3333 27.0951 38.545 27.0951H19.4274C18.6391 27.0951 18 26.456 18 25.6677V23.5492C18 22.7608 18.6391 22.1217 19.4274 22.1217Z" stroke="#F1FFF3" stroke-width="1.69934" stroke-linecap="round" stroke-linejoin="round"/>
</svg>
