<svg width="57" height="53" viewBox="0 0 57 53" fill="none" xmlns="http://www.w3.org/2000/svg">
<rect width="57" height="53" rx="22" fill="#3299FF"/>
<path d="M28.7168 18.305V28.4047M23.5621 36.1877V38.0796C23.5621 38.4582 23.4117 38.8213 23.144 39.089C22.8763 39.3566 22.5132 39.507 22.1347 39.507H20.6109C20.2324 39.507 19.8692 39.3566 19.6015 39.089C19.3339 38.8213 19.1835 38.4582 19.1835 38.0796V34.1145M33.8884 36.1877V38.0796C33.8884 38.4582 34.0388 38.8213 34.3065 39.089C34.5742 39.3566 34.9373 39.507 35.3159 39.507H36.8396C37.2181 39.507 37.5813 39.3566 37.849 39.089C38.1167 38.8213 38.267 38.4582 38.267 38.0796V34.1145M26.6322 33.718H30.7956M21.5399 30.6818C21.5399 30.6818 21.3813 32.7437 23.6584 32.4718M35.888 30.6818C35.888 30.6818 36.0466 32.7437 33.7695 32.4718M38.2897 19.9703H39.8134C40.0289 19.9703 40.2423 20.0129 40.4412 20.0955C40.6402 20.1781 40.8209 20.2992 40.973 20.4518C41.1251 20.6044 41.2455 20.7856 41.3274 20.9848C41.4094 21.1841 41.4512 21.3976 41.4505 21.613V24.1847M19.1608 19.9703H17.6371C17.4217 19.9703 17.2083 20.0129 17.0093 20.0955C16.8103 20.1781 16.6296 20.2992 16.4775 20.4518C16.3254 20.6044 16.205 20.7856 16.1231 20.9848C16.0412 21.1841 15.9993 21.3976 16 21.613V24.1847M21.336 14H36.0975C37.2989 14 38.2727 14.9738 38.2727 16.1752V34.0182C38.2727 35.2195 37.2989 36.1933 36.0975 36.1933H21.336C20.1347 36.1933 19.1608 35.2195 19.1608 34.0182V16.1752C19.1608 14.9738 20.1347 14 21.336 14ZM21.2623 18.305H36.1655C36.7229 18.305 37.2574 18.5264 37.6515 18.9205C38.0456 19.3146 38.267 19.8491 38.267 20.4065V28.4047H19.1608V20.4065C19.1608 19.8491 19.3822 19.3146 19.7763 18.9205C20.1705 18.5264 20.705 18.305 21.2623 18.305Z" stroke="#F1FFF3" stroke-width="1.69934" stroke-linecap="round" stroke-linejoin="round"/>
</svg>
