<svg width="57" height="53" viewBox="0 0 57 53" fill="none" xmlns="http://www.w3.org/2000/svg">
<rect width="57" height="53" rx="22" fill="#6DB6FE"/>
<path d="M30.3667 19.6299L30.99 20.3498M32.4567 22.0436L33.9682 23.7892M35.5733 25.643L36.1087 26.2613M40.2811 25.8124L26.957 37.3494C26.7932 37.4912 26.5711 37.5523 26.3398 37.5191C26.1084 37.486 25.8866 37.3614 25.7233 37.1727L23.285 34.3568C23.6536 34.0376 23.861 33.5629 23.8617 33.037C23.8624 32.5112 23.6563 31.9772 23.2888 31.5527C23.1069 31.3417 22.8907 31.1639 22.6525 31.0295C22.4143 30.8951 22.1588 30.8068 21.9006 30.7695C21.6424 30.7322 21.3866 30.7467 21.1479 30.8122C20.9092 30.8777 20.6921 30.9928 20.5093 31.1511L18.0563 28.3182C17.893 28.1295 17.8014 27.8922 17.8017 27.6585C17.802 27.4248 17.8942 27.2139 18.058 27.072L31.3821 15.535C31.5459 15.3932 31.7679 15.332 31.9993 15.3651C32.2306 15.3982 32.4524 15.5229 32.6158 15.7115L35.0541 18.5275C34.8713 18.6858 34.7262 18.8842 34.6273 19.1111C34.5283 19.338 34.4774 19.5891 34.4774 19.8499C34.4773 20.1108 34.5283 20.3764 34.6272 20.6313C34.7262 20.8863 34.8712 21.1257 35.054 21.3358C35.4216 21.7603 35.9205 22.0407 36.4411 22.1152C36.9616 22.1897 37.4612 22.0523 37.8297 21.7331L40.2681 24.5492C40.3522 24.6423 40.4193 24.7492 40.4655 24.8636C40.5118 24.978 40.5363 25.0976 40.5376 25.2153C40.5388 25.333 40.5167 25.4465 40.4726 25.549C40.4286 25.6515 40.3635 25.7411 40.2811 25.8124Z" stroke="#F1FFF3" stroke-width="1.69934" stroke-linecap="round" stroke-linejoin="round"/>
</svg>
