<svg width="57" height="53" viewBox="0 0 57 53" fill="none" xmlns="http://www.w3.org/2000/svg">
<rect width="57" height="53" rx="22" fill="#0068FF"/>
<path d="M23.0176 24.778L31.6446 28.1484M32.9304 26.1262C34.2116 26.3556 35.3798 27.0053 36.2507 27.9725C37.1216 28.9398 37.6454 30.1696 37.7396 31.4677C37.8287 32.7837 37.4721 34.0913 36.727 35.1796C35.9819 36.2679 34.8919 37.0735 33.6328 37.4664C32.8209 37.7195 31.9633 37.7913 31.1206 37.6768C30.2779 37.5623 29.4706 37.2643 28.7557 36.8037M36.9069 29.1793L29.1862 34.4303M31.708 15.3194C34.0896 16.2513 35.2644 18.9387 34.3319 21.3218L28.9447 35.0896C28.0122 37.4726 25.3256 38.649 22.9439 37.7171C20.5623 36.7852 19.3875 34.0979 20.32 31.7148L25.7072 17.947C26.6397 15.5639 29.3263 14.3875 31.708 15.3194Z" stroke="#F1FFF3" stroke-width="1.69934" stroke-linecap="round" stroke-linejoin="round"/>
</svg>
