<svg width="57" height="53" viewBox="0 0 57 53" fill="none" xmlns="http://www.w3.org/2000/svg">
<rect width="57" height="53" rx="22" fill="#3299FF"/>
<path d="M33.1399 18.1204C33.1399 19.8438 29.5269 21.2409 25.07 21.2409C20.613 21.2409 17 19.8438 17 18.1204C17 16.3971 20.613 15 25.07 15C29.5269 15 33.1399 16.3971 33.1399 18.1204ZM33.1399 18.1204V22.8037M17 18.1256V23.4505C17 25.1737 20.5935 26.5554 25.07 26.5554C25.6757 26.5554 26.2609 26.5295 26.8256 26.4778M17 22.8088V28.7806C17 30.5038 20.5935 31.8855 25.07 31.8855C25.4601 31.8855 25.84 31.8751 26.2096 31.8544M17 27.7404V33.7381C17 35.4613 20.5935 36.843 25.07 36.843C26.6271 36.8566 28.1796 36.6705 29.6902 36.2893M31.3278 31.782C31.3278 32.0223 31.3749 32.2603 31.4663 32.4823C31.5577 32.7042 31.6916 32.9058 31.8604 33.0755C32.0292 33.2452 32.2295 33.3797 32.45 33.4712C32.6704 33.5627 32.9067 33.6094 33.1451 33.6087C33.6257 33.6087 34.0866 33.4163 34.4265 33.0737C34.7663 32.7311 34.9572 32.2665 34.9572 31.782C34.9211 31.441 34.7936 31.1163 34.5883 30.8428C34.383 30.5693 34.1077 30.3573 33.7919 30.2295C32.8781 29.7121 31.3278 29.5102 31.3278 28.1596C31.3271 27.9188 31.3737 27.6804 31.4648 27.4578C31.5558 27.2352 31.6897 27.033 31.8585 26.8628C32.0274 26.6925 32.2281 26.5576 32.4489 26.4658C32.6696 26.374 32.9062 26.327 33.1451 26.3277C33.3835 26.3277 33.6196 26.3751 33.8398 26.4673C34.06 26.5594 34.26 26.6944 34.4283 26.8646C34.5967 27.0348 34.73 27.2367 34.8208 27.459C34.9115 27.6812 34.9579 27.9193 34.9572 28.1596M33.1399 26.2915V25.4273M33.1399 34.4677V33.6087M40.2243 29.9501C40.2243 33.8941 37.0525 37.0914 33.1399 37.0914C29.2274 37.0914 26.0556 33.8941 26.0556 29.9501C26.0556 26.0061 29.2274 22.8088 33.1399 22.8088C37.0525 22.8088 40.2243 26.0061 40.2243 29.9501Z" stroke="#F1FFF3" stroke-width="1.69934" stroke-linecap="round" stroke-linejoin="round"/>
</svg>
