<svg width="57" height="53" viewBox="0 0 57 53" fill="none" xmlns="http://www.w3.org/2000/svg">
<rect width="57" height="53" rx="22" fill="#0068FF"/>
<g clip-path="url(#clip0_7175_5296)">
<path d="M26.8382 31.8937H32.5027C33.0235 31.8922 33.5226 31.6847 33.8909 31.3164C34.2591 30.9481 34.4667 30.449 34.4682 29.9282C34.4652 29.4083 34.2571 28.9107 33.8889 28.5436C33.5208 28.1765 33.0225 27.9697 32.5027 27.9682H28.9114C28.1055 27.9587 27.3055 27.8289 26.538 27.5831C25.1162 27.2772 22.8165 27.2602 21.7629 29.9282H19.4971M34.4399 29.9281L39.5379 26.926C39.9828 26.6564 40.5165 26.5742 41.0219 26.6974C41.5273 26.8206 41.9632 27.139 42.2342 27.583C42.5027 28.0276 42.585 28.5603 42.463 29.0652C42.3411 29.57 42.0247 30.0064 41.5828 30.2793L34.9157 35.298C33.7271 36.1926 32.2796 36.6757 30.792 36.6745H19.4631M32.548 21.0406L31.1601 22.4341C31.1517 22.4428 31.1416 22.4498 31.1304 22.4545C31.1192 22.4593 31.1072 22.4617 31.095 22.4617C31.0828 22.4617 31.0709 22.4593 31.0597 22.4545C31.0485 22.4498 31.0383 22.4428 31.0299 22.4341L30.1745 21.0349H26.4361C26.1073 21.8904 25.5269 22.626 24.7714 23.1448C24.016 23.6636 23.1211 23.9411 22.2047 23.9408C21.0029 23.9408 19.8502 23.4634 19.0004 22.6136C18.1505 21.7637 17.6732 20.6111 17.6732 19.4093C17.6732 18.2074 18.1505 17.0548 19.0004 16.2049C19.8502 15.3551 21.0029 14.8777 22.2047 14.8777C23.1205 14.877 24.0148 15.1537 24.7702 15.6714C25.5255 16.1891 26.1064 16.9235 26.4361 17.7779H34.7685L36.8983 19.5848L34.0661 22.5134L32.548 21.0689M19.4744 28.9255C19.4744 28.8444 19.4422 28.7666 19.3848 28.7092C19.3274 28.6519 19.2496 28.6197 19.1685 28.6197H16.1833C16.1022 28.6197 16.0244 28.6519 15.9671 28.7092C15.9097 28.7666 15.8774 28.8444 15.8774 28.9255V37.6658C15.8774 37.7469 15.9097 37.8247 15.9671 37.8821C16.0244 37.9394 16.1022 37.9717 16.1833 37.9717H19.1685C19.2496 37.9717 19.3274 37.9394 19.3848 37.8821C19.4422 37.8247 19.4744 37.7469 19.4744 37.6658V28.9255Z" stroke="#F1FFF3" stroke-width="1.69934" stroke-linecap="round" stroke-linejoin="round"/>
<path d="M20.9872 20.344C21.6629 20.344 22.2107 19.7962 22.2107 19.1205C22.2107 18.4448 21.6629 17.897 20.9872 17.897C20.3115 17.897 19.7637 18.4448 19.7637 19.1205C19.7637 19.7962 20.3115 20.344 20.9872 20.344Z" fill="#F1FFF3"/>
</g>
<defs>
<clipPath id="clip0_7175_5296">
<rect width="28.3733" height="24.8216" fill="white" transform="translate(15 14)"/>
</clipPath>
</defs>
</svg>
