<svg width="60" height="57" viewBox="0 0 60 57" fill="none" xmlns="http://www.w3.org/2000/svg">
<path d="M53.2243 36.2679C50.8594 42.2608 48.24 45.6136 40.7642 50.3318L53.2243 36.2679Z" fill="#093030"/>
<path d="M4.65306 25.2042C5.15665 18.8857 8.0222 12.9888 12.6788 8.68849C17.3355 4.38816 23.4413 2.00011 29.7798 2C36.1079 2.0009 42.2042 4.38099 46.8589 8.66795C51.5135 12.9549 54.3862 18.8353 54.9066 25.1419M53.2243 36.2679C50.8594 42.2608 48.24 45.6136 40.7642 50.3318M53.2243 36.2679C52.5291 36.056 51.946 35.5775 51.6025 34.9371C51.2589 34.2967 51.1829 33.5463 51.3908 32.8499C51.8612 31.2943 52.0982 29.6775 52.094 28.0524C52.094 27.6928 52.165 27.3368 52.3028 27.0047C52.4407 26.6726 52.6428 26.3709 52.8975 26.1171C53.1522 25.8632 53.4545 25.6622 53.787 25.5254C54.1196 25.3886 54.4758 25.3187 54.8354 25.3199C55.1946 25.3187 55.5504 25.3886 55.8825 25.5255C56.2145 25.6624 56.5162 25.8637 56.7702 26.1176C57.0241 26.3716 57.2254 26.6733 57.3623 27.0053C57.4992 27.3374 57.5691 27.6932 57.5679 28.0524C57.5851 30.2118 57.2852 32.362 56.6778 34.4343C56.5093 34.9974 56.1638 35.4912 55.6923 35.8424C55.2209 36.1935 54.6489 36.3834 54.0611 36.3836C53.7782 36.3834 53.4966 36.3445 53.2243 36.2679ZM30.127 31.7729V29.9928C30.1276 29.2202 30.3352 28.4618 30.728 27.7966C31.1209 27.1314 31.6529 26.6073 32.3611 26.21C33.0692 25.8127 33.6586 25.2337 34.0685 24.5328C34.4784 23.8319 34.694 23.0344 34.6931 22.2225C34.6746 21.018 34.1874 19.8682 33.3348 19.0172C32.4822 18.1663 31.3314 17.6814 30.127 17.6653C28.9183 17.6653 27.7592 18.1454 26.9046 19.0001C26.0499 19.8547 25.5698 21.0138 25.5698 22.2225V23.2282M5.50754 36.3836C4.91972 36.3834 4.34765 36.1935 3.87624 35.8424C3.40484 35.4912 3.05927 34.9974 2.89077 34.4343C2.28339 32.362 1.98351 30.2118 2.0007 28.0524C2.0007 27.6928 2.07165 27.3368 2.20953 27.0047C2.34741 26.6726 2.5495 26.3709 2.80418 26.1171C3.05886 25.8632 3.36116 25.6622 3.69371 25.5254C4.02626 25.3886 4.3825 25.3187 4.74209 25.3199C5.10126 25.3187 5.45711 25.3886 5.78916 25.5255C6.12122 25.6624 6.42298 25.8637 6.67696 26.1176C6.93093 26.3716 7.13209 26.6733 7.269 27.0053C7.40591 27.3374 7.47585 27.6932 7.47468 28.0524C7.4749 29.6772 7.7117 31.2934 8.17776 32.8499C8.28195 33.1947 8.31719 33.5567 8.28142 33.9151C8.24564 34.2736 8.13965 34.6214 7.96937 34.9388C7.79909 35.2563 7.56783 35.537 7.28899 35.765C7.01015 35.9931 6.68917 36.164 6.34427 36.2679C6.07225 36.3458 5.7905 36.3848 5.50754 36.3836ZM42.1252 38.582C43.7991 36.9105 45.1003 34.9035 45.943 32.6931C46.7857 30.4827 47.151 28.119 47.0148 25.7573C46.8786 23.3957 46.244 21.0896 45.1528 18.9907C44.0615 16.8919 42.5383 15.0478 40.6833 13.5798C37.7338 11.2521 34.0895 9.97946 30.3321 9.96494C26.5748 9.95042 22.9208 11.1948 19.9534 13.4997C16.7706 15.9878 14.5926 19.5408 13.8192 23.506C13.0458 27.4711 13.729 31.5822 15.7434 35.084L12.7172 43.9225C12.6998 43.9725 12.6966 44.0264 12.7081 44.0781C12.7196 44.1298 12.7453 44.1772 12.7823 44.2151C12.8193 44.253 12.8661 44.2799 12.9175 44.2927C12.9689 44.3054 13.0227 44.3035 13.0732 44.2873L21.9206 41.2523C25.1128 43.0926 28.823 43.8284 32.476 43.3457C36.1289 42.8629 39.5206 41.1885 42.1252 38.582ZM40.9948 51.4169C40.9948 52.8867 39.8033 54.0782 38.3335 54.0782C36.8637 54.0782 35.6721 52.8867 35.6721 51.4169C35.6721 49.9471 36.8637 48.7556 38.3335 48.7556C39.8033 48.7556 40.9948 49.9471 40.9948 51.4169Z" stroke="#093030" stroke-width="4" stroke-miterlimit="10"/>
<circle cx="29.7801" cy="34.7801" r="1.78015" fill="#093030"/>
</svg>
