<svg width="69" height="69" viewBox="0 0 69 69" fill="none" xmlns="http://www.w3.org/2000/svg">
<path d="M64.0459 45.4036C62.4481 49.4508 60.0361 53.1269 56.96 56.2043C51.8915 61.2799 45.257 64.4941 38.1323 65.3255C31.0077 66.1569 23.8109 64.5566 17.71 60.7843C17.3171 60.5927 16.8829 60.5024 16.4463 60.5216C16.0096 60.5408 15.5844 60.6689 15.21 60.8943C9.67996 63.2443 2 66.3843 2 66.3843C2 66.3843 5.79037 56.9443 7.38037 53.0343C7.60159 52.6617 7.72619 52.2399 7.74365 51.807C7.76111 51.374 7.67049 50.9435 7.47998 50.5543C3.49726 44.1442 1.92449 36.5265 3.04199 29.0631C4.1595 21.5996 7.89453 14.7768 13.5801 9.81433C19.3846 4.77483 26.8131 2 34.5 2C42.1869 2 49.6159 4.77483 55.4204 9.81433C58.6938 12.681 61.3439 16.1891 63.2065 20.1214C65.0692 24.0537 66.1047 28.3266 66.249 32.6754C66.3934 37.0242 65.6437 41.3563 64.0459 45.4036Z" stroke="#093030" stroke-width="4" stroke-linecap="round" stroke-linejoin="round"/>
</svg>
