<svg width="42" height="51" viewBox="0 0 42 51" fill="none" xmlns="http://www.w3.org/2000/svg">
<path d="M37.6619 40.2496L37.6804 38.2497L37.6711 38.2496H37.6619V40.2496ZM39.4774 36.4616L37.8704 37.6522L37.8981 37.6897L37.9276 37.7259L39.4774 36.4616ZM35.2884 26.8116L37.2556 26.4505L37.2533 26.4384L37.251 26.4262L35.2884 26.8116ZM31.6952 10.2106L33.2456 8.94705L33.2414 8.94198L31.6952 10.2106ZM21.0007 5.13464L21.0051 3.13462L20.9944 3.13465L21.0007 5.13464ZM10.3062 10.2106L8.7612 8.94049L8.75585 8.94705L10.3062 10.2106ZM6.72236 26.8116L4.75972 26.4268L4.75741 26.4387L4.75523 26.4505L6.72236 26.8116ZM2.53344 36.4616L4.07196 37.7395L4.10741 37.6968L4.14044 37.6522L2.53344 36.4616ZM4.34894 40.2496V38.2496H4.33081L4.31269 38.25L4.34894 40.2496ZM19.0101 5.13467C19.0101 6.23924 19.9056 7.13467 21.0101 7.13467C22.1147 7.13467 23.0101 6.23924 23.0101 5.13467H19.0101ZM23.0101 2C23.0101 0.89543 22.1147 0 21.0101 0C19.9056 0 19.0101 0.89543 19.0101 2H23.0101ZM21.0007 49L21.0047 47H21.0007L21.0007 49ZM17.6208 47.5959L16.2041 49.0076L17.6208 47.5959ZM37.6433 42.2496C38.4642 42.2572 39.2701 42.0303 39.9664 41.596L37.8496 38.2021C37.7986 38.2339 37.7399 38.2503 37.6804 38.2497L37.6433 42.2496ZM39.9664 41.596C40.6628 41.1617 41.2208 40.5379 41.5754 39.798L37.9683 38.0692C37.9419 38.1242 37.9006 38.1702 37.8496 38.2021L39.9664 41.596ZM41.5754 39.798C41.93 39.0581 42.0667 38.2326 41.9696 37.4181L37.9977 37.8913C38.005 37.9524 37.9947 38.0141 37.9683 38.0692L41.5754 39.798ZM41.9696 37.4181C41.8726 36.6035 41.5458 35.8332 41.0271 35.1974L37.9276 37.7259C37.966 37.7729 37.9905 37.8303 37.9977 37.8913L41.9696 37.4181ZM41.0844 35.271C39.1519 32.6627 37.842 29.6453 37.2556 26.4505L33.3213 27.1727C34.018 30.9679 35.5741 34.5529 37.8704 37.6522L41.0844 35.271ZM37.251 26.4262C36.9997 25.1465 36.8906 23.8172 36.8145 22.4017C36.7409 21.0318 36.696 19.4968 36.5614 18.0332C36.2858 15.0364 35.6052 11.8423 33.2455 8.94705L30.1449 11.4741C31.7756 13.4749 32.3337 15.7403 32.5782 18.3995C32.7037 19.7639 32.7391 21.106 32.8203 22.6164C32.8991 24.0814 33.0193 25.6357 33.3259 27.197L37.251 26.4262ZM33.2414 8.94198C31.7556 7.13107 29.8882 5.67113 27.7727 4.66707L26.0576 8.2807C27.6398 9.03168 29.037 10.1239 30.1491 11.4792L33.2414 8.94198ZM27.7727 4.66707C25.6572 3.663 23.3462 3.13976 21.0051 3.13465L20.9963 7.13464C22.7471 7.13846 24.4754 7.52974 26.0576 8.2807L27.7727 4.66707ZM20.9944 3.13465C18.6542 3.14201 16.3445 3.66621 14.2299 4.66985L15.9451 8.28347C17.5276 7.53235 19.256 7.14014 21.007 7.13463L20.9944 3.13465ZM14.2299 4.66985C12.1154 5.67347 10.2482 7.13174 8.76121 8.9405L11.8511 11.4807C12.9646 10.1262 14.3625 9.0346 15.9451 8.28347L14.2299 4.66985ZM8.75585 8.94705C6.39576 11.8428 5.71767 15.0351 5.44456 18.0312C5.31122 19.4939 5.2675 21.0292 5.19473 22.399C5.11952 23.8146 5.01104 25.1449 4.75972 26.4268L8.68501 27.1964C8.99159 25.6325 9.11123 24.0769 9.1891 22.6112C9.26939 21.0997 9.30369 19.7585 9.42804 18.3944C9.67029 15.7368 10.2262 13.4744 11.8565 11.4741L8.75585 8.94705ZM4.75523 26.4505C4.16877 29.6453 2.8589 32.6627 0.926445 35.271L4.14044 37.6522C6.43668 34.5529 7.99281 30.9679 8.6895 27.1727L4.75523 26.4505ZM0.994926 35.1837C0.467616 35.8186 0.133786 36.5914 0.0325865 37.4101L4.00237 37.9008C4.00976 37.8411 4.03406 37.7851 4.07196 37.7395L0.994926 35.1837ZM0.0325865 37.4101C-0.0686204 38.2288 0.0670537 39.0596 0.423658 39.8037L4.03077 38.0748C4.00492 38.0209 3.995 37.9605 4.00237 37.9008L0.0325865 37.4101ZM0.423658 39.8037C0.780235 40.5476 1.34286 41.174 2.04522 41.6078L4.14708 38.2045C4.09717 38.1737 4.05664 38.1288 4.03077 38.0748L0.423658 39.8037ZM2.04522 41.6078C2.74757 42.0415 3.55976 42.2643 4.3852 42.2493L4.31269 38.25C4.25446 38.251 4.19701 38.2353 4.14708 38.2045L2.04522 41.6078ZM4.34894 42.2496H37.6619V38.2496H4.34894V42.2496ZM23.0101 5.13467V2H19.0101V5.13467H23.0101ZM23.7854 44.2121C23.7861 44.5788 23.7145 44.942 23.5747 45.2808L27.2726 46.8059C27.6129 45.9809 27.7871 45.0967 27.7854 44.2042L23.7854 44.2121ZM23.5747 45.2808C23.435 45.6196 23.23 45.9272 22.9714 46.1861L25.802 49.0124C26.4326 48.3809 26.9323 47.631 27.2726 46.8059L23.5747 45.2808ZM22.9714 46.1861C22.7129 46.445 22.4061 46.65 22.0687 46.7896L23.5977 50.4859C24.4224 50.1447 25.1714 49.6439 25.802 49.0124L22.9714 46.1861ZM22.0687 46.7896C21.7311 46.9293 21.3696 47.0007 21.0047 47L20.9967 51C21.8892 51.0018 22.7731 50.827 23.5977 50.4859L22.0687 46.7896ZM21.0007 47C20.6362 47 20.2753 46.928 19.9384 46.7881L18.4039 50.482C19.2269 50.8239 20.1094 51 21.0007 51L21.0007 47ZM19.9384 46.7881C19.6015 46.6481 19.2953 46.4429 19.0374 46.1841L16.2041 49.0076C16.8333 49.639 17.5808 50.1401 18.4039 50.482L19.9384 46.7881ZM19.0374 46.1841C18.7796 45.9254 18.575 45.618 18.4356 45.2795L14.737 46.8028C15.0764 47.627 15.5749 48.3762 16.2041 49.0076L19.0374 46.1841ZM18.4356 45.2795C18.2962 44.9411 18.2248 44.5784 18.2255 44.2121L14.2255 44.2042C14.2238 45.0956 14.3976 45.9786 14.737 46.8028L18.4356 45.2795Z" fill="#093030"/>
</svg>
