<svg width="32" height="46" viewBox="0 0 32 46" fill="none" xmlns="http://www.w3.org/2000/svg">
<path d="M22.97 30.18L28.97 23.71C29.2324 23.39 29.376 22.9889 29.376 22.575C29.376 22.1611 29.2324 21.76 28.97 21.44L22.97 14.97M29.3601 22.55H11.6301M23.1501 39.1V39.34C23.1501 40.3213 22.7603 41.2624 22.0664 41.9563C21.3725 42.6502 20.4313 43.04 19.45 43.04H5.69995C4.71865 43.04 3.77762 42.6502 3.08374 41.9563C2.38986 41.2624 2 40.3213 2 39.34V5.69998C2 4.71868 2.38986 3.77759 3.08374 3.08371C3.77762 2.38983 4.71865 2 5.69995 2H19.45C20.4313 2 21.3725 2.38983 22.0664 3.08371C22.7603 3.77759 23.1501 4.71868 23.1501 5.69998V5.82999" stroke="#093030" stroke-width="4" stroke-linecap="round" stroke-linejoin="round"/>
</svg>
