<svg width="48" height="46" viewBox="0 0 48 46" fill="none" xmlns="http://www.w3.org/2000/svg">
<path d="M23.9219 2H23.9561C24.3219 1.99642 24.6828 2.0758 25.0117 2.23047L25.1504 2.30078C25.5149 2.50179 25.8203 2.79308 26.0371 3.14551L26.0488 3.16504L31.0215 11.0508L31.0254 11.0576L31.0293 11.0635C31.8699 12.3756 33.1499 13.3409 34.6338 13.7939L34.9326 13.8779L34.9395 13.8799L44.0029 16.1533H44.0039C44.3624 16.243 44.6958 16.4102 44.9795 16.6426L45.0977 16.7461C45.4053 17.0324 45.6343 17.3913 45.7637 17.7881C45.893 18.185 45.9185 18.608 45.8389 19.0176C45.7691 19.376 45.6203 19.7146 45.4033 20.0088L45.3066 20.1318L45.3047 20.1348L39.3184 27.2842C38.3149 28.4811 37.7794 29.9963 37.8057 31.5508L37.8184 31.8623V31.8672L38.4473 41.1592C38.4639 41.4116 38.441 41.6644 38.3809 41.9092L38.3086 42.1514C38.2231 42.3904 38.1011 42.6153 37.9473 42.8174L37.7832 43.0117C37.6089 43.1977 37.4068 43.3556 37.1846 43.4805L36.9551 43.5947C36.6422 43.7306 36.3046 43.8006 35.9629 43.8018C35.7218 43.8012 35.4825 43.7678 35.252 43.7012L35.0234 43.623L26.3555 40.1562L26.3486 40.1533L26.3408 40.1504L26.0527 40.0449C25.3736 39.8149 24.6608 39.6964 23.9424 39.6943H23.9268C23.1106 39.6983 22.3019 39.8527 21.542 40.1504L21.5352 40.1533L21.5293 40.1562L12.8613 43.623C12.5618 43.741 12.2424 43.8012 11.9199 43.8018C11.5786 43.8003 11.2411 43.7305 10.9287 43.5947C10.6154 43.4586 10.3341 43.2598 10.1016 43.0117C9.8689 42.7634 9.69015 42.47 9.57617 42.1514C9.46245 41.8334 9.41533 41.4959 9.4375 41.1592L10.0654 31.8672L10.0664 31.8623C10.168 30.3038 9.70149 28.7655 8.76074 27.5273L8.56641 27.2842L2.58008 20.1348L2.57812 20.1318L2.48047 20.0088C2.29451 19.7566 2.15903 19.4718 2.08008 19.1699L2.04492 19.0176C1.97531 18.6597 1.98652 18.2912 2.07715 17.9385L2.12109 17.7881C2.23435 17.4407 2.42357 17.123 2.6748 16.8574L2.78711 16.7461C3.05616 16.4958 3.37773 16.3079 3.72852 16.1963L3.87988 16.1533H3.88184L12.9453 13.8799L12.9482 13.8789C14.4619 13.4969 15.7849 12.5846 16.6777 11.3125L16.8506 11.0537V11.0527L21.834 3.16699L21.8477 3.14551C22.0368 2.83825 22.293 2.57694 22.5977 2.38184L22.7314 2.30273C23.0951 2.1016 23.5051 1.99697 23.9219 2Z" stroke="#093030" stroke-width="4"/>
</svg>
