<svg width="27" height="59" viewBox="0 0 27 59" fill="none" xmlns="http://www.w3.org/2000/svg">
<path d="M2 40.0223C2 42.9284 3.20627 45.7153 5.35346 47.7702C7.50065 49.8251 10.4128 50.9796 13.4494 50.9796M13.4494 50.9796C16.486 50.9796 19.3983 49.8251 21.5454 47.7702C23.6926 45.7153 24.8989 42.9284 24.8989 40.0223C24.9353 38.328 24.5354 36.6511 23.7344 35.1396C22.9335 33.6281 21.756 32.3286 20.3061 31.3556C15.791 28.7432 9.5553 29.5231 5.59651 25.9945C4.47147 24.9858 3.57254 23.7686 2.95426 22.4171C2.33599 21.0655 2.01133 19.6079 2 18.1325C2 15.2253 3.20586 12.437 5.35267 10.3801C7.49949 8.32329 10.4116 7.16619 13.4494 7.16291C16.4872 7.16619 19.3993 8.32329 21.5462 10.3801C23.693 12.437 24.8989 15.2253 24.8989 18.1325M13.4494 50.9796L13.4494 56.1301M13.4494 2V7.15053" stroke="#093030" stroke-width="4" stroke-linecap="round" stroke-linejoin="round"/>
</svg>
