<svg width="62" height="62" viewBox="0 0 62 62" fill="none" xmlns="http://www.w3.org/2000/svg">
<path d="M3.40715 22.1001C1.22751 28.8223 1.58985 36.1104 4.42575 42.5833C7.23815 49.0679 12.3332 54.2949 18.7443 57.2729M3.40715 22.1001C4.66411 18.1865 6.7415 14.586 9.50072 11.5388C12.2599 8.49165 15.6374 6.06797 19.4079 4.42953M3.40715 22.1001C7.13075 23.8438 11.1835 24.7733 15.295 24.8265C19.4064 24.8797 23.4821 24.0553 27.2496 22.4084C29.6734 21.3509 31.9432 19.9711 33.9976 18.3062M19.4079 4.42953C23.174 2.77972 27.249 1.95218 31.3605 2.00213C35.4719 2.05209 39.5253 2.97839 43.2503 4.7192M19.4079 4.42953C12.4542 7.45716 11.9962 21.8197 18.3984 36.4907C19.2768 38.5091 20.266 40.4776 21.3613 42.3871M19.4079 4.42953C23.8287 2.49521 29.8102 5.59759 35.2217 11.9052M43.2503 4.7192C49.6553 7.70587 54.7477 12.9302 57.5689 19.4088M43.2503 4.7192C42.4695 7.15993 41.3663 9.48547 39.9698 11.6342M57.5689 19.4088C60.4078 25.8806 60.7735 33.1687 58.5968 39.8921M57.5689 19.4088L49.933 22.7355M58.5968 39.8921C57.3432 43.8085 55.2671 47.4119 52.5076 50.461C49.748 53.5101 46.3688 55.9346 42.5961 57.572M58.5968 39.8921C54.8701 38.1525 50.8159 37.2261 46.7034 37.1746C42.5909 37.123 38.5145 37.9475 34.7453 39.5931C32.3117 40.6545 30.0348 42.0441 27.9784 43.7233M42.5961 57.572C38.8281 59.2223 34.7511 60.0493 30.6378 59.9977C26.5245 59.9462 22.4697 59.0172 18.7443 57.2729M42.5961 57.572C46.7085 55.7778 48.5498 50.0496 48.0357 42.574M42.5961 57.572C38.1473 59.5156 32.1095 56.3572 26.6607 49.9842M18.7443 57.2729C19.5323 54.8334 20.6385 52.5084 22.0343 50.358M40.6053 19.549C41.7149 21.476 42.7167 23.4633 43.6056 25.5015C45.085 28.8759 46.2397 32.3835 47.0543 35.9767M43.5962 25.5015L4.41651 42.5833M42.3251 15.7832C42.3251 18.2655 40.3123 20.2779 37.8295 20.2779C35.3467 20.2779 33.3339 18.2655 33.3339 15.7832C33.3339 13.3008 35.3467 11.2884 37.8295 11.2884C40.3123 11.2884 42.3251 13.3008 42.3251 15.7832ZM28.5019 46.1997C28.5019 48.682 26.4892 50.6944 24.0063 50.6944C21.5235 50.6944 19.5108 48.682 19.5108 46.1997C19.5108 43.7173 21.5235 41.7049 24.0063 41.7049C26.4892 41.7049 28.5019 43.7173 28.5019 46.1997Z" stroke="#093030" stroke-width="4" stroke-linecap="round" stroke-linejoin="round"/>
</svg>
