<svg width="32" height="46" viewBox="0 0 32 46" fill="none" xmlns="http://www.w3.org/2000/svg">
<path d="M13.3399 14.95L19.3399 21.42C19.6023 21.74 19.7459 22.1411 19.7459 22.555C19.7459 22.9689 19.6023 23.37 19.3399 23.69L13.3399 30.16M19.72 22.55H2M8.17 39.1V39.34C8.16999 40.3196 8.55835 41.2592 9.25008 41.9528C9.9418 42.6464 10.8804 43.0373 11.8599 43.04H25.6199C26.6013 43.04 27.5425 42.6502 28.2364 41.9563C28.9303 41.2624 29.3199 40.3213 29.3199 39.34V5.69998C29.3199 4.71868 28.9303 3.77759 28.2364 3.08371C27.5425 2.38983 26.6013 2 25.6199 2H11.8599C10.8804 2.00265 9.9418 2.39362 9.25008 3.08722C8.55835 3.78082 8.16999 4.72041 8.17 5.69998V5.82999" stroke="#093030" stroke-width="4" stroke-linecap="round" stroke-linejoin="round"/>
</svg>
