<svg width="32" height="37" viewBox="0 0 32 37" fill="none" xmlns="http://www.w3.org/2000/svg">
<path d="M12.6098 17.5122C13.3629 20.353 18.1228 28.5912 23.9069 30.2957M21.6475 33.4917C17.1286 31.8937 12.5602 27.9636 9.89847 21.2407C6.73525 13.251 13.9654 10.055 16.6768 16.9795C17.7196 19.6427 19.3881 22.5723 24.3588 25.5019C29.3296 28.4315 32.4928 19.6428 27.9739 16.9796C21.3943 13.1018 19.84 1.95878 10.3504 4.19596C-2.97982 7.33856 -0.0429927 28.1652 6.73528 34.0243M26.6183 21.2407C18.4843 18.0448 18.6812 4.75455 9.89847 8.98962C-0.0430229 13.7835 7.18721 32.959 16.2249 35.6223M17.5806 1C22.5513 1.53265 23.907 7.39181 29.3296 12.7183" stroke="#093030" stroke-width="2" stroke-linecap="round" stroke-linejoin="round"/>
</svg>
