<svg width="55" height="55" viewBox="0 0 55 55" fill="none" xmlns="http://www.w3.org/2000/svg">
<path d="M52.0867 2.47162L22.8895 31.6029M22.8895 31.5924L29.2776 50.6675C29.4159 51.2133 29.741 51.6934 30.1963 52.0245C30.6516 52.3555 31.2084 52.5165 31.7701 52.4797C32.1424 52.446 32.4981 52.3097 32.7976 52.086C33.0972 51.8622 33.3287 51.5598 33.4666 51.2122L52.3799 4.01153C52.4865 3.74502 52.5126 3.45301 52.4549 3.1718C52.3973 2.8906 52.2584 2.63251 52.0554 2.42952C51.8525 2.22654 51.5945 2.08761 51.3133 2.02993C51.0322 1.97224 50.7403 1.99831 50.4738 2.10499L3.28514 21.0231C1.78759 21.6201 1.55724 23.5999 2.81394 24.8988C2.88724 24.9198 22.8895 31.5924 22.8895 31.5924Z" stroke="#093030" stroke-width="3.60606" stroke-linecap="round" stroke-linejoin="round"/>
</svg>
