<svg width="105" height="98" viewBox="0 0 105 98" fill="none" xmlns="http://www.w3.org/2000/svg">
<rect width="105" height="97.6316" rx="25.7895" fill="#6DB6FE"/>
<g clip-path="url(#clip0_7175_2573)">
<path d="M49.8999 58.59H59.8999C60.8194 58.5874 61.7004 58.221 62.3506 57.5708C63.0008 56.9206 63.3672 56.0396 63.3699 55.1201C63.3646 54.2023 62.9971 53.3238 62.3472 52.6758C61.6973 52.0278 60.8177 51.6627 59.8999 51.66H53.5598C52.1371 51.6432 50.7249 51.4141 49.3699 50.9801C46.8599 50.4401 42.7999 50.4101 40.9399 55.1201H36.9399M63.3198 55.12L72.3198 49.82C73.1053 49.3442 74.0475 49.1991 74.9397 49.4165C75.8319 49.6339 76.6014 50.1962 77.0798 50.98C77.5539 51.7649 77.6992 52.7052 77.4839 53.5965C77.2685 54.4879 76.7101 55.2582 75.9299 55.74L64.1599 64.6C62.0616 66.1792 59.5061 67.0322 56.8799 67.03H36.8799M59.98 39.4301L57.5298 41.8901C57.5149 41.9055 57.4971 41.9178 57.4773 41.9262C57.4575 41.9345 57.4363 41.9388 57.4148 41.9388C57.3933 41.9388 57.3723 41.9345 57.3525 41.9262C57.3328 41.9178 57.3147 41.9055 57.2998 41.8901L55.7898 39.42H49.1899C48.6096 40.9302 47.5848 42.2289 46.2512 43.1447C44.9176 44.0606 43.3378 44.5506 41.72 44.5501C39.5982 44.5501 37.5633 43.7072 36.063 42.2069C34.5627 40.7066 33.72 38.6718 33.72 36.5501C33.72 34.4283 34.5627 32.3935 36.063 30.8932C37.5633 29.3929 39.5982 28.5501 41.72 28.5501C43.3366 28.5488 44.9155 29.0373 46.249 29.9513C47.5825 30.8653 48.6079 32.1618 49.1899 33.67H63.8999L67.6599 36.86L62.6599 42.03L59.98 39.48M36.8999 53.35C36.8999 53.2068 36.843 53.0695 36.7417 52.9682C36.6404 52.8669 36.5031 52.8101 36.3599 52.8101H31.0898C30.9466 52.8101 30.8093 52.8669 30.708 52.9682C30.6067 53.0695 30.5498 53.2068 30.5498 53.35V68.78C30.5498 68.9232 30.6067 69.0606 30.708 69.1619C30.8093 69.2631 30.9466 69.3201 31.0898 69.3201H36.3599C36.5031 69.3201 36.6404 69.2631 36.7417 69.1619C36.843 69.0606 36.8999 68.9232 36.8999 68.78V53.35Z" stroke="#F1FFF3" stroke-width="3" stroke-linecap="round" stroke-linejoin="round"/>
<path d="M39.5702 38.1999C40.7631 38.1999 41.7302 37.2328 41.7302 36.0399C41.7302 34.8469 40.7631 33.8799 39.5702 33.8799C38.3772 33.8799 37.4102 34.8469 37.4102 36.0399C37.4102 37.2328 38.3772 38.1999 39.5702 38.1999Z" fill="#F1FFF3"/>
</g>
<defs>
<clipPath id="clip0_7175_2573">
<rect width="50.09" height="43.82" fill="white" transform="translate(29 27)"/>
</clipPath>
</defs>
</svg>
